<svg xmlns="http://www.w3.org/2000/svg" width="351" height="61" fill="none" xmlns:v="https://vecta.io/nano"><g clip-path="url(#A)"><path d="M51.753 36.354c-1.051.662-2.288.743-3.227.216-1.189-.672-1.852-2.246-1.852-4.432v-6.542c0-3.16-1.255-5.41-3.352-6.016-3.554-1.033-6.226 3.3-7.231 4.928l-6.27 10.128V22.252c-.069-2.849-.991-4.559-2.761-5.065-1.166-.341-2.91-.198-4.605 2.379L8.41 42.037A24.62 24.62 0 0 1 5.554 30.5c0-13.535 10.887-24.547 24.267-24.547S54.08 16.965 54.08 30.5c-.001.022-.001.044 0 .065v.067c.127 2.623-.725 4.708-2.339 5.723l.012-.002zm7.731-5.852v-.135C59.405 13.882 46.13.5 29.821.5 13.467.5.162 13.958.162 30.5s13.305 30 29.659 30A29.37 29.37 0 0 0 49.985 52.5c.526-.494.836-1.175.863-1.896s-.231-1.423-.718-1.956a2.67 2.67 0 0 0-.849-.625c-.322-.15-.67-.234-1.025-.248s-.709.044-1.041.168a2.67 2.67 0 0 0-.895.558 24.05 24.05 0 0 1-17.62 6.523 24.05 24.05 0 0 1-16.935-8.139l12.665-20.263v9.343c0 4.486 1.746 5.937 3.211 6.361s3.707.135 6.058-3.671l6.966-11.251a23.29 23.29 0 0 1 .617-.948v5.681c0 4.193 1.687 7.547 4.627 9.2 2.648 1.491 5.98 1.356 8.694-.351 3.291-2.072 5.063-5.885 4.878-10.484h.004zm41.289-10.25c.712.432 1.328 1.388 1.328 2.258-.008.667-.275 1.305-.744 1.779s-1.104.748-1.771.764c-.325-.014-.644-.081-.947-.198a9.67 9.67 0 0 0-5.65-1.921c-4.936 0-8.353 4.032-8.353 9.023s3.418 8.982 8.353 8.982a9.27 9.27 0 0 0 6.312-2.543c.43-.307.945-.475 1.472-.48.315-.002.627.059.918.179s.555.297.776.52.396.489.514.781a2.35 2.35 0 0 1 .171.919c-.014.415-.129.821-.337 1.18a2.53 2.53 0 0 1-.852.883c-2.379 2.018-5.602 3.36-8.921 3.36-7.594 0-13.765-6.24-13.765-13.92s6.171-13.92 13.765-13.92a13.77 13.77 0 0 1 7.731 2.353zm13.886 5.808c5.174 0 9.541 4.361 9.541 9.745s-4.361 9.935-9.541 9.935c-5.411 0-9.911-4.559-9.911-9.935s4.5-9.745 9.911-9.745zm-.047 14.879c2.279 0 4.224-2.161 4.224-5.088s-1.945-4.757-4.224-4.757c-2.468 0-4.51 1.784-4.51 4.758 0 2.93 2.042 5.088 4.51 5.088zm12.841 1.824V29.045a2.71 2.71 0 0 1 2.658-2.738 2.75 2.75 0 0 1 2.706 2.738v13.727a2.75 2.75 0 0 1-2.706 2.726 2.71 2.71 0 0 1-2.658-2.734v-.002zm-.424-21.647c0-1.784 1.375-3.217 3.084-3.217a3.2 3.2 0 0 1 3.172 3.217c-.008.834-.346 1.631-.941 2.215a3.15 3.15 0 0 1-2.231.903 3.09 3.09 0 0 1-1.186-.241 3.1 3.1 0 0 1-1.004-.678c-.286-.29-.513-.633-.666-1.011s-.231-.782-.228-1.189zm16.068 14.205v7.442a2.75 2.75 0 0 1-2.708 2.735 2.71 2.71 0 0 1-2.656-2.734V28.413c.003-.556.223-1.089.614-1.484s.922-.621 1.477-.629a2.08 2.08 0 0 1 2.042 2.113c2.181-2.016 4.08-2.353 5.884-2.353 5.364 0 7.731 4.032 7.731 8.593v8.111c-.005.718-.29 1.406-.795 1.917a2.75 2.75 0 0 1-1.907.817 2.71 2.71 0 0 1-1.892-.821c-.498-.512-.773-1.2-.767-1.915v-7.44c0-2.351-.285-4.319-3.655-4.319-2.379 0-3.37 1.968-3.37 4.319l.002-.002zm29.832 2.843a1.75 1.75 0 0 1-1.376-.674l-6.266-6.774v12.048a2.75 2.75 0 0 1-2.706 2.734 2.71 2.71 0 0 1-2.658-2.735V18.91a1.05 1.05 0 0 1 .991-.672c.472 0 .85.385 1.138.672l9.975 11.184c.08.158.202.291.353.384s.324.142.501.142a.96.96 0 0 0 .502-.142c.15-.093.273-.226.353-.384l9.968-11.186c.286-.287.665-.672 1.138-.672a1.05 1.05 0 0 1 .991.672v23.857a2.71 2.71 0 0 1-2.652 2.734 2.75 2.75 0 0 1-2.706-2.735V30.716l-6.268 6.768c-.15.2-.343.364-.564.482s-.464.185-.714.198zm25.799 2.775c2.421 0 4.46-2.161 4.46-5.088s-2.085-4.849-4.46-4.849-4.272 1.968-4.272 4.849c0 2.835 1.899 5.088 4.272 5.088zm5.697 2.448l-.097-.624c-1.042 2.063-4.361 2.973-6.504 2.973-5.031 0-8.722-4.559-8.722-9.935s3.796-9.745 9.018-9.745c1.19.025 2.36.304 3.433.82s2.023 1.255 2.785 2.169l.095-.624a2.08 2.08 0 0 1 2.042-2.113 2.12 2.12 0 0 1 2.087 2.113v14.976a2.12 2.12 0 0 1-2.099 2.101 2.08 2.08 0 0 1-2.042-2.111h.004zm19.011-12.385h-.569c-3.37.198-4.034 2.113-4.034 4.319v7.442a2.75 2.75 0 0 1-2.706 2.735 2.71 2.71 0 0 1-2.658-2.735V28.411a2.12 2.12 0 0 1 2.087-2.113 2.08 2.08 0 0 1 2.042 2.113c1.994-1.873 3.607-2.256 5.269-2.353h.521c.325-.003.647.058.948.179s.575.301.807.528.416.498.543.797.195.62.198.944a2.48 2.48 0 0 1-.179.948c-.122.301-.301.575-.529.807s-.498.416-.796.544-.62.194-.944.197zm20.673 10.506c.247.387.379.836.38 1.294 0 1.388-1.282 2.688-2.658 2.688-.949 0-1.756-.72-2.379-1.489l-6.172-7.14v5.903a2.75 2.75 0 0 1-2.706 2.736 2.71 2.71 0 0 1-2.658-2.736V20.973a2.71 2.71 0 0 1 2.658-2.736 2.75 2.75 0 0 1 2.706 2.736v13.585l6.168-6.817c.619-.72 1.378-1.441 2.328-1.441 1.33 0 2.563 1.249 2.563 2.64.008.439-.107.872-.333 1.249l-4.889 5.326 4.984 6 .008-.008zm6.672-7.283h7.731c0-2.291-1.816-3.427-3.867-3.427s-3.864 1.195-3.864 3.437v-.01zm10.869 3.299h-10.869c0 3.215 3.085 3.695 4.46 3.695.992 0 2.423-.198 3.513-.672.412-.273.893-.423 1.388-.432.58.011 1.132.248 1.54.661s.637.969.64 1.549a2.29 2.29 0 0 1-.342 1.116c-.208.336-.5.613-.847.803-1.661 1.199-3.798 1.487-5.84 1.487-5.41 0-9.911-2.926-9.911-9.695 0-5.328 2.751-9.985 9.16-9.985 5.173 0 9.118 3.36 9.207 9.36a2.12 2.12 0 0 1-2.099 2.123v-.01zm14.931 8.207h-1.475c-4.084 0-6.454-1.784-6.454-8.159v-6.567h-1.388a2.47 2.47 0 0 1-1.748-.724c-.463-.464-.724-1.092-.724-1.748s.261-1.284.724-1.748a2.47 2.47 0 0 1 1.748-.724h1.388v-5.089a2.71 2.71 0 0 1 2.658-2.735 2.75 2.75 0 0 1 2.706 2.735v5.089h2.23c.655 0 1.284.26 1.748.724s.724 1.092.724 1.748-.261 1.284-.724 1.748-1.093.724-1.748.724h-2.23v5.521c0 3.647.198 4.416 1.804 4.416h.759a2.39 2.39 0 0 1 1.685.709c.446.45.696 1.059.694 1.692-.007.631-.258 1.234-.702 1.682s-1.045.705-1.675.717v-.01zm25.988-25.488c.711.432 1.33 1.388 1.33 2.258a2.58 2.58 0 0 1-.745 1.779c-.469.474-1.104.748-1.771.764a2.99 2.99 0 0 1-.949-.198 9.67 9.67 0 0 0-5.65-1.921c-4.934 0-8.353 4.032-8.353 9.023s3.417 8.992 8.353 8.992c2.351-.017 4.608-.926 6.314-2.543a2.56 2.56 0 0 1 1.471-.48 2.36 2.36 0 0 1 .917.178c.291.12.555.297.777.52s.396.489.514.781a2.37 2.37 0 0 1 .17.919c-.013.415-.129.821-.336 1.18a2.54 2.54 0 0 1-.853.883c-2.379 2.018-5.602 3.36-8.92 3.36-7.594 0-13.765-6.24-13.765-13.92s6.169-13.92 13.765-13.92c2.754-.007 5.447.813 7.731 2.353v-.01zm13.602 20.697c2.42 0 4.46-2.161 4.46-5.088s-2.089-4.849-4.462-4.849-4.272 1.968-4.272 4.849c0 2.833 1.899 5.088 4.272 5.088h.002zm5.695 2.448l-.095-.624c-1.045 2.063-4.361 2.973-6.504 2.973-5.031 0-8.734-4.559-8.734-9.935s3.798-9.745 9.02-9.745a8.33 8.33 0 0 1 3.431.813 8.32 8.32 0 0 1 2.787 2.16l.095-.624a2.08 2.08 0 0 1 2.042-2.113 2.12 2.12 0 0 1 2.087 2.113v14.976c0 .556-.219 1.09-.61 1.486a2.12 2.12 0 0 1-1.477.631 2.08 2.08 0 0 1-2.042-2.109v-.002zm18.87-2.448c2.378 0 4.272-2.256 4.272-5.088 0-2.88-1.9-4.849-4.272-4.849s-4.462 1.921-4.462 4.849 2.041 5.088 4.462 5.088zm-4.462 3.217v6.815c-.005.719-.29 1.408-.796 1.919a2.75 2.75 0 0 1-1.91.816c-.714-.014-1.394-.309-1.892-.821s-.773-1.2-.767-1.914V28.413a2.12 2.12 0 0 1 2.09-2.113c1.138 0 2.042.961 2.042 2.303 1.992-2.064 4.46-2.543 6.311-2.543 5.222 0 9.02 4.361 9.02 9.745s-3.703 9.935-8.734 9.935c-1.566 0-3.892-.48-5.364-1.582v-.002z" fill="#fff"/></g><defs><clipPath id="A"><path fill="#fff" transform="translate(.162 .5)" d="M0 0h350.209v60H0z"/></clipPath></defs></svg>