<svg xmlns="http://www.w3.org/2000/svg" width="222" height="65" fill="none" xmlns:v="https://vecta.io/nano"><g clip-path="url(#A)" fill="#fff"><path d="M31.991 36.925l-12.933 5.692c-.074-.531-.048-1.105-.242-1.59l-2.871-6.849c-.099-.226-.47-.333-.715-.495l12.731-5.622 1.02.11 1.383 2.504 2.329 5.059c.094.249.17.504.228.763-.02.028-.048.048-.08.059s-.067.012-.099.002l-.282.162-.228.059-.24.145z"/><path d="M32.921 36.482a5.7 5.7 0 0 0-.228-.763l-2.329-5.059c-.403-.843-.894-1.625-1.383-2.504l-1.02-.11 5.491-2.506 7.484-3.268c.282.236.675.422.826.719.392.782.67 1.621 1.008 2.433.797 1.908 2.144 3.636 1.897 5.882l-11.746 5.177zM15.23 33.674c.245.162.616.27.715.495l2.871 6.849c.194.485.169 1.054.242 1.589l-7.505 3.329-.955-.238-1.229-.658-2.987-1.465a7.55 7.55 0 0 0-.959-.812l-4.625-2.71 10.89-4.916 3.542-1.463zm3.367 25.883l-4.075-1.897 10.119-4.492 4.813 2.367 5.953-2.544 9.385 4.615-4.128 1.908c-.314-.141-.633-.403-.944-.405a2785.29 2785.29 0 0 0-20.027 0c-.363.013-.729.297-1.096.449z"/><path d="M44.667 31.311c.247-2.245-1.1-3.974-1.897-5.882l-1.008-2.433c-.152-.301-.544-.483-.826-.719l6.278-2.7 4.501 2.135 1.876 1.168 4.469 2.53-13.393 5.9zm5.38 23.311c-.274 0-.594.072-.816-.04l-10.197-5.146 3.52-7.083 6.957 3.489.12-.618c1.054-.156 2.108-.466 3.162-.434 1.832.053 3.723-.459 5.492.434v1.41c-.858-.156-1.714-.407-2.578-.449l-4.568-.017c-.485 0-.972.048-1.524.078l.015 4.005.417 4.37zM42.791 6.957l1.885.953-10.452 4.606-4.762-2.397-4.783 2.334-9.824-4.92.464-.325c.422.133.843.379 1.265.377l7.469-.124 15.84.112c.961-.002 1.931-.405 2.899-.616z"/><path d="M42.791 6.957c-.968.211-1.937.622-2.905.632-5.281.015-10.559-.095-15.84-.112-2.49 0-4.979.112-7.469.124-.422 0-.843-.245-1.265-.377l6.765-3.373h14.621l6.092 3.105zm-24.194 52.6c.367-.152.734-.436 1.103-.438h20.027c.314 0 .632.264.944.405l-11.225 5.481-10.848-5.447zm-1.255-36.175l-6.969-3.668 2.218-3.927c.481-1.02.719-2.157 1.067-3.24l7.985 4.005-2.216 4.819c-.422.814-1.084 1.505-1.636 2.251h-.08l-.061-.053-.308-.188z"/><path d="M13.658 12.547c-.348 1.084-.586 2.22-1.067 3.24-.632 1.356-1.476 2.622-2.218 3.927l-.236-.141-.306-.194-.375.015-8.681-4.739 8.445-4.427 4.437 2.319zm38.056 9.166l-4.501-2.136-.422-.531 1.423-2.848 3.31-4.914 5.833 2.918-4.587 6.805c-.224.323-.698.474-1.056.706zm-9.159 20.64l-3.52 7.083-9.259-4.6 9.604-4.216 3.175 1.733zm7.492 12.269l-.422-4.364c-.074-1.282-.015-2.572-.015-4.005l1.524-.078 4.568.017c.864.042 1.72.293 2.578.449v3.946l-8.234 4.035zm-.453-12.685v-5.854l8.687-3.83v7.8c-2.789-.862-5.58-.455-8.249-.293l-.438 2.178zm-38.995 3.761l.955.238 4.157 2.515 2.53 1.423-10.304 4.577-1.807-.989 4.469-7.764z"/><path d="M.775 14.655l8.681 4.739-.027 2.785H.971v1.493l-.232 2.74.036-11.757zm9.824 31.043L6.13 53.462l-4.216-2.108 1.493-2.966 2.983-4.804 2.987 1.465 1.223.649zm38.995-3.76l.432-2.18c2.669-.162 5.46-.569 8.249.293v5.173c-1.769-.894-3.66-.382-5.492-.434-1.054-.032-2.108.278-3.162.434l-.027-3.287z"/><path d="M.731 26.412l.232-2.741c.03-.422 0-.843 0-1.492h8.466l.048 5.175h-8.38L.73 30.645v-4.233zm17.061-2.789c.552-.746 1.214-1.438 1.636-2.251l2.216-4.819 7.6 3.738-9.872 4.317-1.579-.984zm33.922-1.91c.358-.23.843-.382 1.054-.704l4.581-6.805.913.592v9.866a3.09 3.09 0 0 1-.196.742l-4.469-2.53-1.883-1.162zm-.196-10.428l-3.31 4.914c-.563.894-.955 1.897-1.423 2.848l-6.672-3.584 8.12-3.624c.567-.253 1.121-.588 1.714-.698.498-.099 1.046.082 1.571.143zM6.383 43.575L3.4 48.38c-.561.949-.999 1.975-1.493 2.966l-1.109-.474V40.053l4.625 2.711a7.55 7.55 0 0 1 .959.812z"/><path d="M.731 30.645l.367-3.289h8.38l.141 1.568-8.888 3.93v-2.209zm35.97-26.81H22.079L29.449 0l7.252 3.835zm125.541 24.08c-4.446.559-7.72 3.078-8.925 6.839a10.29 10.29 0 0 0 .312 7.465c1.229 2.924 3.876 5.002 7.395 5.791 1.009.234 3.642.257 4.69.046 4.073-.801 6.929-3.331 8.101-7.167.279-.917.312-1.195.312-2.821s-.033-1.897-.312-2.821c-1.161-3.784-3.912-6.28-7.846-7.115-1.232-.191-2.48-.264-3.727-.217zm2.496 4.981c1.476.381 2.857 1.347 3.506 2.46a5.42 5.42 0 0 1 .719 2.767 5.43 5.43 0 0 1-.789 2.748c-1.846 2.903-6.06 3.373-8.59.963-2.108-2.009-2.182-5.19-.175-7.359a5.53 5.53 0 0 1 2.452-1.507 5.54 5.54 0 0 1 2.877-.072zm19.211-4.981c-4.446.559-7.72 3.078-8.928 6.839a10.31 10.31 0 0 0 .315 7.465c1.231 2.924 3.878 5.002 7.395 5.791 1.009.234 3.644.257 4.69.046 4.075-.801 6.929-3.331 8.103-7.167.279-.917.312-1.195.312-2.821s-.033-1.897-.312-2.821c-1.161-3.784-3.912-6.28-7.848-7.115a19.52 19.52 0 0 0-3.727-.217zm2.502 4.981c1.476.381 2.857 1.347 3.506 2.46a5.42 5.42 0 0 1 .719 2.767 5.43 5.43 0 0 1-.788 2.748c-1.845 2.903-6.059 3.373-8.591.963-2.108-2.009-2.182-5.19-.173-7.359a5.53 5.53 0 0 1 5.327-1.579zm26.741-4.922c-2.589.371-4.528 2.032-5.154 4.41-.605 2.241-.175 4.541 1.033 5.654.719.662 1.566 1.054 3.91 1.811 2.277.732 2.787 1.054 3.019 1.811.265.883-.394 1.927-1.381 2.207a5.36 5.36 0 0 1-2.228-.013 8.16 8.16 0 0 1-2.637-1.311c-.171-.173-.371-.316-.591-.422-.059 0-.337.422-.615.951-.384.742-.51.906-.546.698l-.036-.257h-6.023V28.311h-4.992v19.502h11.028v-.523a1.59 1.59 0 0 1 .046-.523c.023 0 .474.211 1.01.453 1.636.765 2.671.987 4.69.987 1.973 0 2.901-.175 4.122-.765.963-.466 2.274-1.754 2.715-2.658.87-1.813.986-4.237.267-5.782-.256-.457-.577-.876-.952-1.242-.844-.858-1.765-1.311-4.122-2.066-.706-.206-1.396-.463-2.066-.767a1.38 1.38 0 0 1-.441-.419 1.36 1.36 0 0 1-.219-.568c-.03-.203-.014-.411.046-.607a1.39 1.39 0 0 1 .302-.528c1.031-1.103 2.855-.999 4.769.266l.373.245 1.01-1.939.963-1.96c-.116-.116-1.532-.675-2.333-.93-1.719-.546-3.504-.732-4.967-.51zM72.915 35.302v12.846h4.549L83.246 48c5.603-.694 9.75-4.085 11.076-9.086.443-1.653.546-4.572.221-6.299-.632-3.362-2.388-6.078-5.074-7.905-1.208-.826-2.285-1.284-4.005-1.756-1.358-.369-1.564-.369-6.957-.443l-5.576-.059-.017 12.849zm9.908-7.589c3.525.753 5.869 3.702 5.869 7.391-.015 2.447-.765 4.558-2.167 5.943s-3.466 2.081-6.343 2.095h-1.368V27.498h1.52a16.54 16.54 0 0 1 2.494.207l-.004.008zm13.84 7.603v12.832l10.812-.015h10.795l2.789-3.908 2.876-3.894c.044 0 1.357 1.754 2.892 3.908l2.801 3.908h3.51l3.498-.089c0-.044-2.066-2.934-4.573-6.417l-4.572-6.324 4.361-6.094 4.638-6.373c.281-.28.281-.236.281 2.332v2.61h5.31v20.356h6.341V27.793l3.099-.029 3.082-.044-1.653-2.61-1.651-2.612-10.841-.015h-10.857l-2.787 3.908-2.877 3.91c-.045.015-1.341-1.756-2.876-3.91l-2.803-3.908H96.663v12.834zm19.086-6.436l4.513 6.417c0 .093-2.036 2.993-4.528 6.459l-4.541 6.307-.044-2.462-.029-2.464h-8.557V37.38h6.931v-4.867h-6.931v-5.015h8.555v-2.433l.059-2.435c.029 0 2.093 2.819 4.572 6.25z"/></g><defs><clipPath id="A"><path fill="#fff" transform="translate(.731)" d="M0 0h220.569v65H0z"/></clipPath></defs></svg>